<svg width="409" height="357" viewBox="0 0 409 357" fill="none" xmlns="http://www.w3.org/2000/svg">
<path d="M188.147 409.314L136.745 427.778M188.147 409.314L188.147 1.99216M188.147 409.314L247.148 417.903M188.147 409.314L407.165 336.61M407.165 50.8588L355.167 39.2572M407.165 50.8588L407.165 126.841M407.165 50.8588L5.66899 172.728M188.147 1.99216L129.742 17.2923M188.147 1.99216L247.148 15.1562M85.3427 446.243L15.6146 471.291L13.0835 395.309M85.3427 446.243L71.3375 32.5924M85.3427 446.243L136.745 427.778M71.3375 32.5924L1.60936 50.8588L3.63917 111.793M71.3375 32.5924L129.742 17.2923M129.742 17.2923L136.745 427.778M247.148 15.1562L247.148 417.903M247.148 15.1562L303.169 27.6555M247.148 417.903L303.169 426.058M303.169 426.058L303.169 27.6555M303.169 426.058L355.167 433.627M303.169 426.058L407.165 388.903M303.169 27.6555L355.167 39.2572M303.169 27.6555L3.63917 111.793M355.167 39.2572L355.167 433.627M355.167 433.627L407.165 441.196L407.165 388.903M13.0835 395.309L407.165 265.693M13.0835 395.309L10.9594 331.544M407.165 265.693L407.165 194.479M407.165 265.693L407.165 336.61M10.9594 331.544L407.165 194.479M10.9594 331.544L8.35887 253.477M407.165 194.479L407.165 126.841M8.35887 253.477L407.165 126.841M8.35887 253.477L5.66899 172.728M5.66899 172.728L3.63917 111.793M407.165 336.61L407.165 388.903" stroke="url(#paint0_linear_176_1037)" stroke-width="2"/>
<defs>
<linearGradient id="paint0_linear_176_1037" x1="387.303" y1="78.2071" x2="241.802" y2="264.818" gradientUnits="userSpaceOnUse">
<stop stop-color="#CFDEEC"/>
<stop offset="1" stop-color="#B0C2D5" stop-opacity="0"/>
</linearGradient>
</defs>
</svg>
